{
    "accessors" : [
        {
            "bufferView" : 0,
            "componentType" : 5121,
            "count" : 186,
            "max" : [
                137
            ],
            "min" : [
                0
            ],
            "type" : "SCALAR"
        },
        {
            "bufferView" : 1,
            "componentType" : 5126,
            "count" : 138,
            "max" : [
                0.019060000777244568,
                0.08787000179290771,
                9.999999747378752e-06
            ],
            "min" : [
                -0.020969999954104424,
                -0.027580000460147858,
                -1.9067000150680542
            ],
            "type" : "VEC3"
        },
        {
            "bufferView" : 2,
            "componentType" : 5126,
            "count" : 138,
            "max" : [
                0.9786980748176575,
                0.9992636442184448,
                0.99998939037323
            ],
            "min" : [
                -0.9807758927345276,
                -0.992456316947937,
                -0.6789758205413818
            ],
            "type" : "VEC3"
        },
        {
            "bufferView" : 3,
            "componentType" : 5126,
            "count" : 138,
            "max" : [
                1,
                0.9349953532218933,
                0.8890950083732605,
                -1
            ],
            "min" : [
                -0.999880850315094,
                -0.872039258480072,
                -0.791534423828125,
                -1
            ],
            "type" : "VEC4"
        },
        {
            "bufferView" : 4,
            "componentType" : 5126,
            "count" : 138,
            "max" : [
                0.9884700179100037,
                0.9340500235557556
            ],
            "min" : [
                0.5344200134277344,
                0.011529982089996338
            ],
            "type" : "VEC2"
        }
    ],
    "asset" : {
        "generator" : "Khronos Blender glTF 2.0 I/O",
        "version" : "2.0"
    },
    "bufferViews" : [
        {
            "buffer" : 0,
            "byteLength" : 186,
            "byteOffset" : 0,
            "target" : 34963
        },
        {
            "buffer" : 0,
            "byteLength" : 1656,
            "byteOffset" : 188,
            "target" : 34962
        },
        {
            "buffer" : 0,
            "byteLength" : 1656,
            "byteOffset" : 1844,
            "target" : 34962
        },
        {
            "buffer" : 0,
            "byteLength" : 2208,
            "byteOffset" : 3500,
            "target" : 34962
        },
        {
            "buffer" : 0,
            "byteLength" : 1104,
            "byteOffset" : 5708,
            "target" : 34962
        }
    ],
    "buffers" : [
        {
            "byteLength" : 6812,
            "uri" : "rod2.bin"
        }
    ],
    "extensions" : {},
    "images" : [
        {
            "name" : "fishing_rod_mat_baseColor",
            "uri" : "fishing_rod_mat_baseColor.png"
        }
    ],
    "materials" : [
        {
            "name" : "fishing_rod_mat",
            "pbrMetallicRoughness" : {
                "baseColorTexture" : {
                    "index" : 0
                }
            }
        }
    ],
    "meshes" : [
        {
            "extensions" : {},
            "name" : "fishing_rod_hook_0",
            "primitives" : [
                {
                    "attributes" : {
                        "NORMAL" : 2,
                        "POSITION" : 1,
                        "TANGENT" : 3,
                        "TEXCOORD_0" : 4
                    },
                    "extensions" : {},
                    "extras" : {},
                    "indices" : 0,
                    "material" : 0
                }
            ]
        }
    ],
    "nodes" : [
        {
            "extensions" : {},
            "mesh" : 0,
            "name" : "fishing_rod_hook_0",
            "rotation" : [
                -1.3969838619232178e-09,
                1.0477378964424133e-08,
                -1.0913936421275139e-10,
                1
            ]
        },
        {
            "children" : [
                0
            ],
            "extensions" : {},
            "name" : "fishing_rod_hook",
            "rotation" : [
                0.012468351051211357,
                0.00974974874407053,
                0.1969812959432602,
                0.9802795052528381
            ],
            "scale" : [
                1.0000042915344238,
                1.0000038146972656,
                1.0000009536743164
            ],
            "translation" : [
                -0.18094658851623535,
                1.4871387481689453,
                1.1010619401931763
            ]
        },
        {
            "children" : [
                1
            ],
            "extensions" : {},
            "name" : "Root"
        },
        {
            "children" : [
                2
            ],
            "extensions" : {},
            "name" : "RootNode (model correction matrix)"
        },
        {
            "children" : [
                3
            ],
            "extensions" : {},
            "name" : "RootNode (gltf orientation matrix)",
            "rotation" : [
                -0.7071068286895752,
                0,
                0,
                0.7071067094802856
            ],
            "scale" : [
                1,
                1.0000001192092896,
                1.0000001192092896
            ]
        },
        {
            "children" : [
                4
            ],
            "extensions" : {},
            "name" : "Yup2Zup",
            "rotation" : [
                0.7071068286895752,
                0,
                0,
                0.7071067094802856
            ],
            "scale" : [
                1,
                1.0000001192092896,
                1.0000001192092896
            ]
        }
    ],
    "samplers" : [
        {}
    ],
    "scene" : 0,
    "scenes" : [
        {
            "name" : "OSG_Scene",
            "nodes" : [
                5
            ]
        },
        {
            "name" : "Scene"
        }
    ],
    "textures" : [
        {
            "sampler" : 0,
            "source" : 0
        }
    ]
}
